<svg width="190" height="48" viewBox="0 0 190 48" fill="none" xmlns="http://www.w3.org/2000/svg">
<!-- Selah Wellness wordmark. Rendered as a system-serif <text> (not a custom webfont) so it
     stays legible everywhere this file is used: <img> tags, favicon/social-image generation, emails. -->
<circle cx="24" cy="24" r="22" stroke="#241F1A" stroke-width="1.5"/>
<circle cx="24" cy="15.5" r="4" fill="#241F1A"/>
<path d="M14.5 33c0-3.6 2-6.5 4.4-8.3-.8 1.5-1.3 3.1-1.3 4.7 0 2.3.8 3.8 1.8 3.8.8 0 1.4-1.2 1.6-3 .2-2.5 1.2-4.6 2.5-4.6s2.3 2.1 2.5 4.6c.2 1.8.8 3 1.6 3 1 0 1.8-1.5 1.8-3.8 0-1.6-.5-3.2-1.3-4.7 2.4 1.8 4.4 4.7 4.4 8.3" stroke="#241F1A" stroke-width="1.3" stroke-linecap="round" stroke-linejoin="round"/>
<text x="58" y="33" font-family="Georgia, 'Times New Roman', serif" font-size="27" font-weight="700" letter-spacing="2" fill="#241F1A">SELAH</text>
</svg>
